# xmcd
#
# Track frame offsets: 
#        150
#        15021
#        30394
#        45643
#        64405
#        79925
#        96922
#        115360
#        132245
#        147837
#        169312
#        184938
#        204044
#        224021
#
# Disc length: 3100 seconds
#
# Revision: 0
# Processed by: cddbd v1.5.2PL0 Copyright (c) Steve Scherf et al.
# Submitted via: ExactAudioCopy v0.99pb4
#
DISCID=c30c1a0e
DTITLE=Saurus - Neon Saurus
DYEAR=2009
DGENRE=Rap
TTITLE0=Huuda
TTITLE1=Saurusoundii
TTITLE2=Shokkii
TTITLE3=Luonnonvoima
TTITLE4=Tältä Planeetalta
TTITLE5=Steet Sen
TTITLE6=Son Hyvyyttä (feat. HZÄ)
TTITLE7=Uuteen Maailmaan
TTITLE8=Ranteet Yhteen (feat. Majakka)
TTITLE9=Aina (feat. Sara Sayed)
TTITLE10=Tartu Kii (Aika Rientää) (feat. Loost Koos)
TTITLE11=Suuri Räpsota (feat. Pyhimys)
TTITLE12=Mun Avaruusalus
TTITLE13=Viimeiseen Rantaan
EXTD=
EXTT0=
EXTT1=
EXTT2=
EXTT3=
EXTT4=
EXTT5=
EXTT6=
EXTT7=
EXTT8=
EXTT9=
EXTT10=
EXTT11=
EXTT12=
EXTT13=
PLAYORDER=
